<?xml version="1.0" standalone="no"?>
<!DOCTYPE svg PUBLIC "-//W3C//DTD SVG 1.1//EN" "http://www.w3.org/Graphics/SVG/1.1/DTD/svg11.dtd" >
<svg xmlns="http://www.w3.org/2000/svg">
<metadata></metadata>
<defs>
<font id="vladimirregular" horiz-adv-x="942" >
<font-face units-per-em="2048" ascent="1638" descent="-410" />
<missing-glyph horiz-adv-x="655" />
<glyph horiz-adv-x="2048" />
<glyph horiz-adv-x="2048" />
<glyph unicode="&#xd;" horiz-adv-x="655" />
<glyph unicode=" "  horiz-adv-x="655" />
<glyph unicode="&#x09;" horiz-adv-x="655" />
<glyph unicode="&#xa0;" horiz-adv-x="655" />
<glyph unicode="-" horiz-adv-x="819" d="M102 676v287h656v-287q0 8 -170 8q-180 0 -486 -8z" />
<glyph unicode="." horiz-adv-x="471" d="M102 -20v389h349v-389h-349z" />
<glyph unicode="A" d="M102 123v616q0 51 36 87t87 36h369v369h-246v-246h-246v371q0 51 36 87t87 36h492q51 0 87 -36t36 -87v-1356h-615q-51 0 -87 36t-36 87zM348 248h246v368h-246v-368z" />
<glyph unicode="B" d="M102 0v1479h615q51 0 87 -36t36 -87v-494q0 -53 -38 -88t-91 -35q53 0 91 -34.5t38 -88.5v-493q0 -51 -36 -87t-87 -36h-615zM348 248h246v368h-246v-368zM348 862h246v369h-246v-369z" />
<glyph unicode="C" d="M102 123v1233q0 51 36 87t87 36h492q51 0 87 -36t36 -87v-371h-246v246h-246v-983h246v246h246v-371q0 -51 -36 -87t-87 -36h-492q-51 0 -87 36t-36 87z" />
<glyph unicode="D" d="M102 0v1479h615q51 0 87 -36t36 -87v-1233q0 -51 -36 -87t-87 -36h-615zM348 248h246v983h-246v-983z" />
<glyph unicode="E" d="M102 0v1356q0 51 36 87t87 36h492q51 0 87 -36t36 -87v-617h-492v-491h246v246h246v-494h-738zM348 985h246v246h-246v-246z" />
<glyph unicode="F" d="M102 0v1479h738v-494h-246v246h-246v-369h246v-246h-246v-616h-246z" />
<glyph unicode="G" d="M102 0v494h246v-246h246v368h-369q-51 0 -87 36t-36 87v617q0 51 36 87t87 36h492q51 0 87 -36t36 -87v-1233q0 -51 -36 -87t-87 -36h-615zM348 862h246v369h-246v-369z" />
<glyph unicode="H" d="M102 0v1479h246v-617h246v617h246v-1479h-246v616h-246v-616h-246z" />
<glyph unicode="I" d="M102 0v248h246v983h-246v248h738v-248h-246v-983h246v-248h-738z" />
<glyph unicode="J" d="M102 123v371h246v-246h246v860h246v-985q0 -51 -36 -87t-87 -36h-492q-51 0 -87 36t-36 87zM594 1231v248h246v-248h-246z" />
<glyph unicode="K" d="M102 0v1479h246v-1479h-246zM348 616l246 369h246l-246 -369l246 -616h-246z" />
<glyph unicode="L" d="M102 0v1479h246v-1231h246v246h246v-494h-738z" />
<glyph unicode="M" d="M102 0v1356q0 51 36 87t87 36h123l123 -494l123 494h123q51 0 87 -36t36 -87v-1356h-246v739l-123 -123l-123 123v-739h-246z" />
<glyph unicode="N" d="M102 0v1356q0 51 36 87t87 36h492q49 0 86 -34t37 -83v-1362h-246v1231h-246v-1231h-246z" />
<glyph unicode="O" d="M102 147v1184q0 61 43 104.5t105 43.5h442q61 0 104.5 -43t43.5 -105v-1184q0 -61 -43 -104t-105 -43h-442q-61 0 -104.5 43t-43.5 104zM348 248h246v983h-246v-983z" />
<glyph unicode="P" d="M102 0v1479h615q51 0 87 -36t36 -87v-617q0 -51 -36 -87t-87 -36h-369v-616h-246zM348 862h246v369h-246v-369z" />
<glyph unicode="Q" d="M102 145v1186q0 61 43 104.5t105 43.5h442q61 0 104.5 -43t43.5 -105v-1186q0 -53 -35 -95t-88 -50v-250h-246v248h-221q-61 0 -104.5 43t-43.5 104zM348 244h246v987h-246v-987z" />
<glyph unicode="R" d="M102 0v1479h615q51 0 87 -36t36 -87v-617q0 -51 -36 -87t-87 -36h-123l246 -616h-246l-246 616v-616h-246zM348 862h246v369h-246v-369z" />
<glyph unicode="S" d="M102 123v371h246v-246h246v491h-369q-51 0 -87 36t-36 87v494q0 51 36 87t87 36h492q51 0 87 -36t36 -87v-248h-246v123h-246v-246h369q51 0 87 -36t36 -87v-739q0 -51 -36 -87t-87 -36h-492q-51 0 -87 36t-36 87z" />
<glyph unicode="T" d="M102 1231v248h738v-248h-246v-1231h-246v1231h-246z" />
<glyph unicode="U" d="M102 123v1356h246v-1231h246v1231h246v-1362q0 -49 -37 -83t-86 -34h-492q-51 0 -87 36t-36 87z" />
<glyph unicode="V" d="M102 1479h246l123 -985l123 985h246l-246 -1479h-246z" />
<glyph unicode="W" d="M102 0v1479h246v-740l123 123l123 -123v740h246v-1479h-246l-123 494l-123 -494h-246z" />
<glyph unicode="X" horiz-adv-x="954" d="M119 137q0 27 6 43l221 576l-221 575q-6 16 -6 43q0 51 34.5 86t86.5 35q86 0 116 -82l121 -315l121 315q31 82 117 82q51 0 86 -35t35 -86q0 -27 -7 -43l-221 -575l221 -576q6 -16 7 -43q0 -51 -35 -86t-86 -35q-86 0 -117 82l-121 316l-121 -316q-31 -82 -116 -82 q-51 0 -86 35t-35 86z" />
<glyph unicode="Y" d="M102 1479h246l123 -248l123 248h246l-246 -617v-862h-246v862z" />
<glyph unicode="Z" d="M102 0v248l492 983h-246v-246h-246v494h738v-248l-492 -983h246v246h246v-494h-738z" />
<glyph unicode="a" d="M102 123v616q0 51 36 87t87 36h369v369h-246v-246h-246v371q0 51 36 87t87 36h492q51 0 87 -36t36 -87v-1356h-615q-51 0 -87 36t-36 87zM348 248h246v368h-246v-368z" />
<glyph unicode="b" d="M102 0v1479h615q51 0 87 -36t36 -87v-494q0 -53 -38 -88t-91 -35q53 0 91 -34.5t38 -88.5v-493q0 -51 -36 -87t-87 -36h-615zM348 248h246v368h-246v-368zM348 862h246v369h-246v-369z" />
<glyph unicode="c" d="M102 123v1233q0 51 36 87t87 36h492q51 0 87 -36t36 -87v-371h-246v246h-246v-983h246v246h246v-371q0 -51 -36 -87t-87 -36h-492q-51 0 -87 36t-36 87z" />
<glyph unicode="d" d="M102 0v1479h615q51 0 87 -36t36 -87v-1233q0 -51 -36 -87t-87 -36h-615zM348 248h246v983h-246v-983z" />
<glyph unicode="e" d="M102 0v1356q0 51 36 87t87 36h492q51 0 87 -36t36 -87v-617h-492v-491h246v246h246v-494h-738zM348 985h246v246h-246v-246z" />
<glyph unicode="f" d="M102 0v1479h738v-494h-246v246h-246v-369h246v-246h-246v-616h-246z" />
<glyph unicode="g" d="M102 0v494h246v-246h246v368h-369q-51 0 -87 36t-36 87v617q0 51 36 87t87 36h492q51 0 87 -36t36 -87v-1233q0 -51 -36 -87t-87 -36h-615zM348 862h246v369h-246v-369z" />
<glyph unicode="h" d="M102 0v1479h246v-617h246v617h246v-1479h-246v616h-246v-616h-246z" />
<glyph unicode="i" d="M102 0v248h246v983h-246v248h738v-248h-246v-983h246v-248h-738z" />
<glyph unicode="j" d="M102 123v371h246v-246h246v860h246v-985q0 -51 -36 -87t-87 -36h-492q-51 0 -87 36t-36 87zM594 1231v248h246v-248h-246z" />
<glyph unicode="k" d="M102 0v1479h246v-1479h-246zM348 616l246 369h246l-246 -369l246 -616h-246z" />
<glyph unicode="l" d="M102 0v1479h246v-1231h246v246h246v-494h-738z" />
<glyph unicode="m" d="M102 0v1356q0 51 36 87t87 36h123l123 -494l123 494h123q51 0 87 -36t36 -87v-1356h-246v739l-123 -123l-123 123v-739h-246z" />
<glyph unicode="n" d="M102 0v1356q0 51 36 87t87 36h492q49 0 86 -34t37 -83v-1362h-246v1231h-246v-1231h-246z" />
<glyph unicode="o" d="M102 147v1184q0 61 43 104.5t105 43.5h442q61 0 104.5 -43t43.5 -105v-1184q0 -61 -43 -104t-105 -43h-442q-61 0 -104.5 43t-43.5 104zM348 248h246v983h-246v-983z" />
<glyph unicode="p" d="M102 0v1479h615q51 0 87 -36t36 -87v-617q0 -51 -36 -87t-87 -36h-369v-616h-246zM348 862h246v369h-246v-369z" />
<glyph unicode="q" d="M102 145v1186q0 61 43 104.5t105 43.5h442q61 0 104.5 -43t43.5 -105v-1186q0 -53 -35 -95t-88 -50v-250h-246v248h-221q-61 0 -104.5 43t-43.5 104zM348 244h246v987h-246v-987z" />
<glyph unicode="r" d="M102 0v1479h615q51 0 87 -36t36 -87v-617q0 -51 -36 -87t-87 -36h-123l246 -616h-246l-246 616v-616h-246zM348 862h246v369h-246v-369z" />
<glyph unicode="s" d="M102 123v371h246v-246h246v491h-369q-51 0 -87 36t-36 87v494q0 51 36 87t87 36h492q51 0 87 -36t36 -87v-248h-246v123h-246v-246h369q51 0 87 -36t36 -87v-739q0 -51 -36 -87t-87 -36h-492q-51 0 -87 36t-36 87z" />
<glyph unicode="t" d="M102 1231v248h738v-248h-246v-1231h-246v1231h-246z" />
<glyph unicode="u" d="M102 123v1356h246v-1231h246v1231h246v-1362q0 -49 -37 -83t-86 -34h-492q-51 0 -87 36t-36 87z" />
<glyph unicode="v" d="M102 1479h246l123 -985l123 985h246l-246 -1479h-246z" />
<glyph unicode="w" d="M102 0v1479h246v-740l123 123l123 -123v740h246v-1479h-246l-123 494l-123 -494h-246z" />
<glyph unicode="x" horiz-adv-x="954" d="M119 137q0 27 6 43l221 576l-221 575q-6 16 -6 43q0 51 34.5 86t86.5 35q86 0 116 -82l121 -315l121 315q31 82 117 82q51 0 86 -35t35 -86q0 -27 -7 -43l-221 -575l221 -576q6 -16 7 -43q0 -51 -35 -86t-86 -35q-86 0 -117 82l-121 316l-121 -316q-31 -82 -116 -82 q-51 0 -86 35t-35 86z" />
<glyph unicode="y" d="M102 1479h246l123 -248l123 248h246l-246 -617v-862h-246v862z" />
<glyph unicode="z" d="M102 0v248l492 983h-246v-246h-246v494h738v-248l-492 -983h246v246h246v-494h-738z" />
<glyph unicode="&#xad;" horiz-adv-x="819" d="M102 676v287h656v-287q0 8 -170 8q-180 0 -486 -8z" />
<glyph unicode="&#x2000;" horiz-adv-x="747" />
<glyph unicode="&#x2001;" horiz-adv-x="1495" />
<glyph unicode="&#x2002;" horiz-adv-x="747" />
<glyph unicode="&#x2003;" horiz-adv-x="1495" />
<glyph unicode="&#x2004;" horiz-adv-x="498" />
<glyph unicode="&#x2005;" horiz-adv-x="373" />
<glyph unicode="&#x2006;" horiz-adv-x="249" />
<glyph unicode="&#x2007;" horiz-adv-x="249" />
<glyph unicode="&#x2008;" horiz-adv-x="186" />
<glyph unicode="&#x2009;" horiz-adv-x="299" />
<glyph unicode="&#x200a;" horiz-adv-x="83" />
<glyph unicode="&#x2010;" horiz-adv-x="819" d="M102 676v287h656v-287q0 8 -170 8q-180 0 -486 -8z" />
<glyph unicode="&#x2011;" horiz-adv-x="819" d="M102 676v287h656v-287q0 8 -170 8q-180 0 -486 -8z" />
<glyph unicode="&#x2012;" horiz-adv-x="819" d="M102 676v287h656v-287q0 8 -170 8q-180 0 -486 -8z" />
<glyph unicode="&#x2013;" horiz-adv-x="1187" d="M102 676v287h1024v-287q0 8 -265 8q-281 0 -759 -8z" />
<glyph unicode="&#x2014;" horiz-adv-x="2211" d="M102 676v287h2048v-287q0 8 -531 8q-562 0 -1517 -8z" />
<glyph unicode="&#x202f;" horiz-adv-x="299" />
<glyph unicode="&#x205f;" horiz-adv-x="373" />
<glyph unicode="&#xe000;" horiz-adv-x="1495" d="M0 0v1495h1495v-1495h-1495z" />
</font>
</defs>
</svg>
