<?xml version="1.0" encoding="utf-8"?>
<!-- Generator: Adobe Illustrator 15.0.2, SVG Export Plug-In . SVG Version: 6.00 Build 0)  -->
<!DOCTYPE svg PUBLIC "-//W3C//DTD SVG 1.1//EN" "http://www.w3.org/Graphics/SVG/1.1/DTD/svg11.dtd">
<svg version="1.1" id="Layer_1" xmlns="http://www.w3.org/2000/svg" xmlns:xlink="http://www.w3.org/1999/xlink" x="0px" y="0px"
	 width="335.983px" height="336.081px" viewBox="0 0 335.983 336.081" enable-background="new 0 0 335.983 336.081"
	 xml:space="preserve">
<g>
	<defs>
		<rect id="SVGID_1_" width="335.983" height="335.983"/>
	</defs>
	<clipPath id="SVGID_2_">
		<use xlink:href="#SVGID_1_"  overflow="visible"/>
	</clipPath>
	<g clip-path="url(#SVGID_2_)">
		<defs>
			<rect id="SVGID_3_" width="335.983" height="335.983"/>
		</defs>
		<clipPath id="SVGID_4_">
			<use xlink:href="#SVGID_3_"  overflow="visible"/>
		</clipPath>
		<g clip-path="url(#SVGID_4_)">
			<g>
				<defs>
					<rect id="SVGID_5_" x="-90.854" y="-104.998" width="517.689" height="545.979"/>
				</defs>
				<clipPath id="SVGID_6_">
					<use xlink:href="#SVGID_5_"  overflow="visible"/>
				</clipPath>
				<path clip-path="url(#SVGID_6_)" d="M114.584,82.523c47.204-29.495,109.382-15.14,138.874,32.062
					c29.497,47.205,15.142,109.381-32.062,138.873c-47.2,29.497-109.376,15.142-138.87-32.06
					C53.028,174.196,67.383,112.021,114.584,82.523 M25.545,257.002c49.16,78.672,152.784,102.593,231.457,53.438
					c78.669-49.161,102.596-152.788,53.435-231.455C261.278,0.312,157.652-23.614,78.981,25.546
					C0.311,74.705-23.614,178.332,25.545,257.002"/>
				<g clip-path="url(#SVGID_6_)">
					<defs>
						<path id="SVGID_7_" d="M219.667,254.424l35.633,57.02c0.564-0.345,1.141-0.656,1.702-1.007
							c78.669-49.158,102.596-152.783,53.435-231.455c-1.053-1.685-2.162-3.311-3.267-4.947l-57.109,35.682
							c1.145,1.612,2.339,3.172,3.397,4.868c29.497,47.205,15.142,109.381-32.06,138.873
							C220.834,253.813,220.239,254.082,219.667,254.424"/>
					</defs>
					<clipPath id="SVGID_8_">
						<use xlink:href="#SVGID_7_"  overflow="visible"/>
					</clipPath>
					
						<linearGradient id="SVGID_9_" gradientUnits="userSpaceOnUse" x1="-21.7568" y1="430.8525" x2="-18.9784" y2="430.8525" gradientTransform="matrix(33.1622 53.0707 53.0707 -33.1622 -21902.9219 15557.9941)">
						<stop  offset="0" style="stop-color:#FFFFFF"/>
						<stop  offset="0.0061" style="stop-color:#F9F9F9"/>
						<stop  offset="0.0855" style="stop-color:#CDCED0"/>
						<stop  offset="0.1701" style="stop-color:#A6A8AB"/>
						<stop  offset="0.2581" style="stop-color:#87898B"/>
						<stop  offset="0.3503" style="stop-color:#6D6E71"/>
						<stop  offset="0.4479" style="stop-color:#565759"/>
						<stop  offset="0.5526" style="stop-color:#424244"/>
						<stop  offset="0.668" style="stop-color:#262627"/>
						<stop  offset="0.8021" style="stop-color:#0C0B0C"/>
						<stop  offset="1" style="stop-color:#000000"/>
					</linearGradient>
					<polygon clip-path="url(#SVGID_8_)" fill="url(#SVGID_9_)" points="320.301,11.15 466.289,244.776 258.961,374.328 
						112.976,140.702 					"/>
				</g>
			</g>
		</g>
	</g>
</g>
</svg>
