<?xml version="1.0" encoding="utf-8"?>
<!-- Generator: Adobe Illustrator 15.0.2, SVG Export Plug-In . SVG Version: 6.00 Build 0)  -->
<!DOCTYPE svg PUBLIC "-//W3C//DTD SVG 1.1//EN" "http://www.w3.org/Graphics/SVG/1.1/DTD/svg11.dtd">
<svg version="1.1" id="Layer_1" xmlns="http://www.w3.org/2000/svg" xmlns:xlink="http://www.w3.org/1999/xlink" x="0px" y="0px"
	 width="289.62px" height="68px" viewBox="0 0 289.62 68" enable-background="new 0 0 289.62 68" xml:space="preserve">
<polygon fill="#D2232A" points="37.531,1 29.148,24.719 4,25.362 23.967,40.664 16.808,64.779 16.809,64.779 37.531,50.518 
	58.252,64.779 58.253,64.779 51.094,40.664 71.062,25.362 45.914,24.719 "/>
<polygon fill="#D2232A" points="146.311,1 137.928,24.719 112.78,25.362 132.747,40.664 125.588,64.779 125.589,64.779 
	146.311,50.518 167.031,64.779 167.033,64.779 159.873,40.664 179.841,25.362 154.693,24.719 "/>
<polygon fill="#D2232A" points="255.09,1 246.707,24.719 221.559,25.362 241.525,40.664 234.367,64.779 234.368,64.779 
	255.09,50.518 275.812,64.779 275.812,64.779 268.653,40.664 288.62,25.362 263.473,24.719 "/>
</svg>
