<?xml version="1.0" encoding="utf-8"?>
<!-- Generator: Adobe Illustrator 15.0.2, SVG Export Plug-In . SVG Version: 6.00 Build 0)  -->
<!DOCTYPE svg PUBLIC "-//W3C//DTD SVG 1.1//EN" "http://www.w3.org/Graphics/SVG/1.1/DTD/svg11.dtd">
<svg version="1.1" id="Layer_1" xmlns="http://www.w3.org/2000/svg" xmlns:xlink="http://www.w3.org/1999/xlink" x="0px" y="0px"
	 width="425.2px" height="425.2px" viewBox="0 0 425.2 425.2" enable-background="new 0 0 425.2 425.2" xml:space="preserve">
<g>
	<defs>
		<polygon id="SVGID_1_" points="6.682,416 415.581,421 415.581,7.101 6.682,7.101 		"/>
	</defs>
	<clipPath id="SVGID_2_">
		<use xlink:href="#SVGID_1_"  overflow="visible"/>
	</clipPath>
	<g clip-path="url(#SVGID_2_)">
		<defs>
			<rect id="SVGID_3_" x="6.682" y="7.101" width="408.899" height="408.899"/>
		</defs>
		<clipPath id="SVGID_4_">
			<use xlink:href="#SVGID_3_"  overflow="visible"/>
		</clipPath>
		<g clip-path="url(#SVGID_4_)">
			<g>
				<defs>
					<rect id="SVGID_5_" x="-113.624" y="-135.444" width="649.506" height="693.99"/>
				</defs>
				<clipPath id="SVGID_6_">
					<use xlink:href="#SVGID_5_"  overflow="visible"/>
				</clipPath>
				<path clip-path="url(#SVGID_6_)" d="M146.135,107.533c57.444-35.893,133.118-18.424,169.013,39.019
					c35.897,57.449,18.43,133.12-39.018,169.013c-57.45,35.897-133.12,18.426-169.016-39.021
					C71.222,219.103,88.688,143.429,146.135,107.533 M37.771,319.876c59.826,95.745,185.943,124.864,281.686,65.036
					c95.743-59.83,124.864-185.947,65.037-281.692C324.662,7.48,198.546-21.635,102.804,38.19
					C7.059,98.02-22.055,224.136,37.771,319.876"/>
				<g clip-path="url(#SVGID_6_)">
					<defs>
						<path id="SVGID_7_" d="M274.022,316.739l43.36,69.395c0.692-0.417,1.391-0.794,2.074-1.222
							c95.743-59.827,124.864-185.942,65.036-281.687c-1.285-2.053-2.635-4.034-3.982-6.026l-69.494,43.425
							c1.387,1.963,2.839,3.867,4.131,5.928c35.896,57.45,18.425,133.114-39.018,169.013
							C275.437,315.997,274.716,316.325,274.022,316.739"/>
					</defs>
					<clipPath id="SVGID_8_">
						<use xlink:href="#SVGID_7_"  overflow="visible"/>
					</clipPath>
					
						<linearGradient id="SVGID_9_" gradientUnits="userSpaceOnUse" x1="-0.2666" y1="432.9688" x2="4.1023" y2="432.9688" gradientTransform="matrix(25.6669 41.0756 41.0756 -25.6669 -17477.4375 11271.1016)">
						<stop  offset="0" style="stop-color:#FFFFFF"/>
						<stop  offset="0.0061" style="stop-color:#F9F9F9"/>
						<stop  offset="0.0855" style="stop-color:#CDCED0"/>
						<stop  offset="0.1701" style="stop-color:#A6A8AB"/>
						<stop  offset="0.2581" style="stop-color:#87898B"/>
						<stop  offset="0.3503" style="stop-color:#6D6E71"/>
						<stop  offset="0.4479" style="stop-color:#565759"/>
						<stop  offset="0.5526" style="stop-color:#424244"/>
						<stop  offset="0.668" style="stop-color:#262627"/>
						<stop  offset="0.8021" style="stop-color:#0C0B0C"/>
						<stop  offset="1" style="stop-color:#000000"/>
					</linearGradient>
					<polygon clip-path="url(#SVGID_8_)" fill="url(#SVGID_9_)" points="396.495,20.67 574.166,304.996 321.848,462.665 
						144.177,178.337 					"/>
				</g>
			</g>
		</g>
		<g clip-path="url(#SVGID_4_)">
			<g>
				<defs>
					<rect id="SVGID_10_" x="17.735" y="87.394" width="382.489" height="247.629"/>
				</defs>
				<clipPath id="SVGID_11_">
					<use xlink:href="#SVGID_10_"  overflow="visible"/>
				</clipPath>
				<path clip-path="url(#SVGID_11_)" d="M276.728,208.843c1.304,37.412-27.967,68.808-65.38,70.112
					c-37.416,1.307-68.808-27.966-70.116-65.381c-1.304-37.417,27.967-68.807,65.383-70.111
					C244.032,142.154,275.423,171.424,276.728,208.843 M205.036,98.296c-62.361,2.172-111.147,54.495-108.971,116.853
					c2.177,62.362,54.498,111.148,116.858,108.974c62.361-2.183,111.147-54.496,108.97-116.859
					C319.713,144.905,267.398,96.12,205.036,98.296"/>
				<g clip-path="url(#SVGID_11_)">
					<defs>
						<path id="SVGID_12_" d="M141.253,212.243l-45.199,1.574c0.01,0.45-0.003,0.884,0.014,1.332
							c2.176,62.358,54.497,111.148,116.856,108.969c1.333-0.043,2.658-0.145,3.98-0.239l-1.582-45.266
							c-1.324,0.125-2.634,0.293-3.976,0.342c-37.421,1.307-68.812-27.966-70.117-65.385
							C141.218,213.127,141.259,212.687,141.253,212.243"/>
					</defs>
					<clipPath id="SVGID_13_">
						<use xlink:href="#SVGID_12_"  overflow="visible"/>
					</clipPath>
					
						<linearGradient id="SVGID_14_" gradientUnits="userSpaceOnUse" x1="-5.3701" y1="422.0518" x2="-1.0017" y2="422.0518" gradientTransform="matrix(-26.7534 0.9342 0.9342 26.7534 -323.0469 -11019.0781)">
						<stop  offset="0" style="stop-color:#FFFFFF"/>
						<stop  offset="0.0061" style="stop-color:#F9F9F9"/>
						<stop  offset="0.0855" style="stop-color:#CDCED0"/>
						<stop  offset="0.1701" style="stop-color:#A6A8AB"/>
						<stop  offset="0.2581" style="stop-color:#87898B"/>
						<stop  offset="0.3503" style="stop-color:#6D6E71"/>
						<stop  offset="0.4479" style="stop-color:#565759"/>
						<stop  offset="0.5526" style="stop-color:#424244"/>
						<stop  offset="0.668" style="stop-color:#262627"/>
						<stop  offset="0.8021" style="stop-color:#0C0B0C"/>
						<stop  offset="1" style="stop-color:#000000"/>
					</linearGradient>
					<polygon clip-path="url(#SVGID_13_)" fill="url(#SVGID_14_)" points="220.884,326.161 96.199,330.514 92.071,212.381 
						216.756,208.028 					"/>
				</g>
			</g>
		</g>
	</g>
</g>
</svg>
